<svg xmlns="http://www.w3.org/2000/svg" viewBox="0 0 58 55.08">
  <g id="frame">
    <rect class="cls-1" width="58" height="55"/>
  </g>
  <g id="apps">
    <rect class="bg" :style="getAppStyle" x="1.81" y="1.74" width="46.62" height="44.42"/>
    <path class="AUDT" d="M21.25,27.93H11.76L9.63,33.85H6.55L15.2,11.2h2.61l8.67,22.65H23.41Zm-8.59-2.45h7.7L16.5,14.89ZM39.3,32.19a6.12,6.12,0,0,1-4.94,2,5.25,5.25,0,0,1-4.1-1.57A6.8,6.8,0,0,1,28.84,28V17h2.88V27.9q0,3.83,3.11,3.82,3.3,0,4.39-2.46V17H42.1V33.85H39.36Z"/>
    <path class="AEFT" d="M21.3,27.93H11.81L9.68,33.85H6.6L15.25,11.2h2.62l8.66,22.65H23.47Zm-8.58-2.45h7.7L16.56,14.89Zm23.4,8.69a7.38,7.38,0,0,1-5.58-2.25,8.36,8.36,0,0,1-2.14-6v-.52a10.23,10.23,0,0,1,1-4.48A7.46,7.46,0,0,1,32,17.82a6.76,6.76,0,0,1,3.73-1.11,6.29,6.29,0,0,1,5.1,2.16,9.38,9.38,0,0,1,1.82,6.19v1.2H31.28a6,6,0,0,0,1.45,4,4.56,4.56,0,0,0,3.54,1.54,4.93,4.93,0,0,0,2.58-.63,6.33,6.33,0,0,0,1.86-1.65l1.75,1.37A7.06,7.06,0,0,1,36.12,34.17Zm-.36-15.1a3.88,3.88,0,0,0-2.93,1.27,6.19,6.19,0,0,0-1.46,3.56H39.8v-.22a5.43,5.43,0,0,0-1.18-3.4A3.64,3.64,0,0,0,35.76,19.07Z"/>
    <path class="PHXS" d="M12.35,25v8.86h-3V11.2h8.36a8.34,8.34,0,0,1,5.82,1.9,6.43,6.43,0,0,1,2.11,5,6.34,6.34,0,0,1-2.06,5.07A8.74,8.74,0,0,1,17.69,25Zm0-2.45h5.37a5.34,5.34,0,0,0,3.67-1.13,4.12,4.12,0,0,0,1.28-3.26,4.27,4.27,0,0,0-1.28-3.24,5.08,5.08,0,0,0-3.5-1.27H12.35Zm26.46,6.85a2.12,2.12,0,0,0-.87-1.81,8.66,8.66,0,0,0-3.07-1.12,14.28,14.28,0,0,1-3.47-1.12,4.94,4.94,0,0,1-1.9-1.55,3.72,3.72,0,0,1-.61-2.15,4.36,4.36,0,0,1,1.75-3.5,6.87,6.87,0,0,1,4.47-1.43,7,7,0,0,1,4.65,1.48A4.7,4.7,0,0,1,41.54,22h-2.9a2.59,2.59,0,0,0-1-2,3.77,3.77,0,0,0-2.53-.86,3.93,3.93,0,0,0-2.46.69,2.15,2.15,0,0,0-.88,1.79,1.74,1.74,0,0,0,.82,1.57,10.16,10.16,0,0,0,3,1,15.63,15.63,0,0,1,3.49,1.15,5.07,5.07,0,0,1,2,1.61,4,4,0,0,1,.64,2.3,4.29,4.29,0,0,1-1.8,3.61,7.58,7.58,0,0,1-4.68,1.37,8.41,8.41,0,0,1-3.58-.72,5.83,5.83,0,0,1-2.44-2,4.87,4.87,0,0,1-.88-2.78h2.88A3,3,0,0,0,32.35,31a4.53,4.53,0,0,0,2.86.85,4.67,4.67,0,0,0,2.62-.66A2,2,0,0,0,38.81,29.39Z"/>
    <path class="ILST" d="M25.88,27.93H16.39l-2.13,5.92H11.18L19.83,11.2h2.61l8.67,22.65H28Zm-8.59-2.45H25L21.13,14.89ZM33.72,12.56a1.71,1.71,0,0,1,.43-1.19,1.59,1.59,0,0,1,1.27-.48,1.64,1.64,0,0,1,1.27.48,1.72,1.72,0,0,1,.44,1.19,1.64,1.64,0,0,1-.44,1.16,1.67,1.67,0,0,1-1.27.47,1.55,1.55,0,0,1-1.7-1.63Zm3.11,21.29H34V17h2.88Z"/>
  </g>
  <g id="status">
    <circle v-if="build.state !== 'unstable'" :style="getStatusStyle" cx="46.53" cy="43.94" r="11"/>
    <path v-if="build.state == 'unstable'" :style="getStatusStyle" d="M57.71,52.33l-9.6-16.62a1.82,1.82,0,0,0-3.17,0l-9.6,16.62a1.83,1.83,0,0,0,1.59,2.75h19.2A1.83,1.83,0,0,0,57.71,52.33Z" transform="translate(0 0)"/>
    <path v-if="build.state == 'unknown'" class="icon-light" d="M51.09,40.45a5.37,5.37,0,0,1-1.72,3.68l-1.11,1.1a3.08,3.08,0,0,0-.65,2.13v.3H45.14v-.3a6.45,6.45,0,0,1,.29-2,5.24,5.24,0,0,1,1.1-1.65l1.33-1.36a2.79,2.79,0,0,0,.76-1.85,2,2,0,0,0-.48-1.45,1.78,1.78,0,0,0-1.39-.51,2.11,2.11,0,0,0-1.46.48,1.54,1.54,0,0,0-.53,1.23v.3H42.29v-.3a3.66,3.66,0,0,1,1.27-2.86,4.63,4.63,0,0,1,3.18-1.08,4.45,4.45,0,0,1,3.18,1.1A4,4,0,0,1,51.09,40.45ZM47.51,49.6a1.35,1.35,0,0,0-1-.41,1.33,1.33,0,0,0-1,.41,1.39,1.39,0,0,0-.36,1,1.29,1.29,0,0,0,1.4,1.36,1.29,1.29,0,0,0,1.41-1.36A1.4,1.4,0,0,0,47.51,49.6Z" transform="translate(0 0)"/>
    <polygon v-if="build.state == 'stable'" class="icon-light" points="43.2 50.8 39.31 46.91 41.04 45.18 43.2 47.34 51.41 39.13 53.13 40.86 43.2 50.8"/>
    <polygon v-if="build.state == 'fail'" class="icon-light" points="51.93 40.26 50.2 38.53 46.53 42.21 42.85 38.53 41.13 40.26 44.8 43.94 41.13 47.61 42.85 49.34 46.53 45.66 50.2 49.34 51.93 47.61 48.26 43.94 51.93 40.26"/>
    <path v-if="build.state == 'unstable'" class="icon-dark" d="M48,52.26a1.47,1.47,0,0,1-2.46,1,1.43,1.43,0,0,1-.36-1,1.4,1.4,0,0,1,.36-1,1.33,1.33,0,0,1,1.05-.41,1.36,1.36,0,0,1,1,.41A1.39,1.39,0,0,1,48,52.26ZM45.22,39.72l.14,9.62h2.28l.15-9.62Z" transform="translate(0 0)"/>
  </g>
</svg>
