<svg xmlns="http://www.w3.org/2000/svg" viewBox="0 0 50 50">
  <defs>
    <style>
      .cls-1 {
        fill: none;
      }

      .cls-2 {
        fill: #d60d0d;
        fill-rule: evenodd;
      }
    </style>
  </defs>
  <title>github</title>
  <g id="frame">
    <rect class="cls-1" width="50" height="50"/>
  </g>
  <g id="icon">
    <path id="github" class="cls-2" d="M25,3.21A20.91,20.91,0,0,0,18.39,44c1,.18,1.43-.44,1.43-1s0-2.15,0-3.9c-5.26,1-6.61-1.28-7-2.45a7.64,7.64,0,0,0-2.15-3c-.73-.39-1.77-1.36,0-1.38s2.82,1.51,3.21,2.14a4.47,4.47,0,0,0,6.09,1.72,4.39,4.39,0,0,1,1.34-2.79C16.58,32.83,11.72,31,11.72,23a8.13,8.13,0,0,1,2.15-5.62,7.48,7.48,0,0,1,.2-5.54s1.76-.55,5.75,2.15a19.62,19.62,0,0,1,10.46,0c4-2.72,5.75-2.15,5.75-2.15a7.5,7.5,0,0,1,.21,5.54A8.11,8.11,0,0,1,38.38,23c0,8-4.89,9.81-9.54,10.33a4.94,4.94,0,0,1,1.41,3.87c0,2.79,0,5,0,5.75,0,.55.39,1.2,1.44,1A20.92,20.92,0,0,0,25,3.21Z"/>
  </g>
</svg>
