<svg xmlns="http://www.w3.org/2000/svg" viewBox="0 0 50 50">
  <defs>
    <style>
      .cls-1 {
        fill: none;
      }

      .cls-2 {
        fill: #d60d0d;
      }
    </style>
  </defs>
  <title>infi</title>
  <g id="frame">
    <rect class="cls-1" width="50" height="50"/>
  </g>
  <g id="icon">
    <path id="infi" class="cls-2" d="M35.5,34.92a9.93,9.93,0,0,1-7-2.9L25,28.54,21.52,32a9.93,9.93,0,1,1,0-14L25,21.46,28.48,18a9.93,9.93,0,1,1,7,16.94Zm-7-9.92L32,28.48a4.92,4.92,0,1,0,0-7Zm-14-4.92A4.92,4.92,0,1,0,18,28.48L21.46,25,18,21.52A4.91,4.91,0,0,0,14.5,20.08Z"/>
  </g>
</svg>
