<svg xmlns="http://www.w3.org/2000/svg" viewBox="0 0 58 55.08">
  <defs>
    <style>
      .cls-1 {
        fill: none;
      }

      .cls-2 {
        fill: #0277bd;
      }

      .cls-3 {
        fill: #fff;
      }

      .cls-4 {
        fill: #43a047;
      }

      .cls-5 {
        fill: #e64a19;
      }

      .cls-6 {
        fill: #f9a825;
      }

      .cls-7 {
        fill: #261300;
      }
    </style>
  </defs>
  <title>stateIcons</title>
  <g id="frame">
    <rect class="cls-1" width="58" height="55"/>
  </g>
  <g id="status">
    <g id="unknown">
      <circle class="cls-2" cx="46.53" cy="43.94" r="11"/>
      <path class="cls-3" d="M51.09,40.45a5.37,5.37,0,0,1-1.72,3.68l-1.11,1.1a3.08,3.08,0,0,0-.65,2.13v.3H45.14v-.3a6.45,6.45,0,0,1,.29-2,5.24,5.24,0,0,1,1.1-1.65l1.33-1.36a2.79,2.79,0,0,0,.76-1.85,2,2,0,0,0-.48-1.45,1.78,1.78,0,0,0-1.39-.51,2.11,2.11,0,0,0-1.46.48,1.54,1.54,0,0,0-.53,1.23v.3H42.29v-.3a3.66,3.66,0,0,1,1.27-2.86,4.63,4.63,0,0,1,3.18-1.08,4.45,4.45,0,0,1,3.18,1.1A4,4,0,0,1,51.09,40.45ZM47.51,49.6a1.35,1.35,0,0,0-1-.41,1.33,1.33,0,0,0-1,.41,1.39,1.39,0,0,0-.36,1,1.29,1.29,0,0,0,1.4,1.36,1.29,1.29,0,0,0,1.41-1.36A1.4,1.4,0,0,0,47.51,49.6Z" transform="translate(0 0)"/>
    </g>
    <g id="stable">
      <circle class="cls-4" cx="46.53" cy="43.94" r="11"/>
      <polygon class="cls-3" points="43.2 50.8 39.31 46.91 41.04 45.18 43.2 47.34 51.41 39.13 53.13 40.86 43.2 50.8"/>
    </g>
    <g id="fail">
      <circle class="cls-5" cx="46.53" cy="43.94" r="11"/>
      <polygon class="cls-3" points="51.93 40.26 50.2 38.53 46.53 42.21 42.85 38.53 41.13 40.26 44.8 43.94 41.13 47.61 42.85 49.34 46.53 45.66 50.2 49.34 51.93 47.61 48.26 43.94 51.93 40.26"/>
    </g>
    <g id="unstable">
      <path class="cls-6" d="M57.71,52.33l-9.6-16.62a1.82,1.82,0,0,0-3.17,0l-9.6,16.62a1.83,1.83,0,0,0,1.59,2.75h19.2A1.83,1.83,0,0,0,57.71,52.33Z" transform="translate(0 0)"/>
      <path class="cls-7" d="M48,52.26a1.47,1.47,0,0,1-2.46,1,1.43,1.43,0,0,1-.36-1,1.4,1.4,0,0,1,.36-1,1.33,1.33,0,0,1,1.05-.41,1.36,1.36,0,0,1,1,.41A1.39,1.39,0,0,1,48,52.26ZM45.22,39.72l.14,9.62h2.28l.15-9.62Z" transform="translate(0 0)"/>
    </g>
  </g>
</svg>
